<?xml version="1.0" standalone="no"?>
<!DOCTYPE svg PUBLIC "-//W3C//DTD SVG 1.1//EN" "http://www.w3.org/Graphics/SVG/1.1/DTD/svg11.dtd" >
<svg xmlns="http://www.w3.org/2000/svg">
<metadata></metadata>
<defs>
<font id="avantgardefmedium" horiz-adv-x="1024" >
<font-face units-per-em="2048" ascent="1638" descent="-410" />
<missing-glyph horiz-adv-x="512" />
<glyph horiz-adv-x="0" />
<glyph horiz-adv-x="682" />
<glyph unicode=" "  horiz-adv-x="512" />
<glyph unicode="&#x09;" horiz-adv-x="512" />
<glyph unicode="&#xa0;" horiz-adv-x="512" />
<glyph unicode="!" horiz-adv-x="491" d="M150 0v225h192v-225h-192zM150 336v1030h192v-1030h-192z" />
<glyph unicode="&#x22;" horiz-adv-x="724" d="M100 1366h205l-35 -549h-135zM420 1366h205l-35 -549h-135z" />
<glyph unicode="#" horiz-adv-x="1228" d="M51 408l25 167h223l37 242h-221l24 168h221l60 381h188l-59 -381h244l59 381h190l-59 -381h217l-26 -168h-218l-36 -242h219l-25 -167h-221l-64 -408h-188l64 408h-244l-66 -408h-186l63 408h-221zM485 575h246l37 242h-246z" />
<glyph unicode="$" d="M98 424h170q8 -93 64.5 -150t148.5 -57q87 0 143 61.5t56 149.5q0 50 -19 87.5t-57 61t-72.5 37t-87.5 27.5q-38 10 -49 13t-40.5 13t-41.5 17.5t-33 20.5t-36 30t-29 39q-61 92 -61 201q0 123 67.5 214.5t184.5 123.5v207h174v-207q128 -23 195.5 -105.5t76.5 -214.5 h-172q-23 156 -164 156q-76 0 -124 -48.5t-48 -125.5q0 -22 3 -40.5t12 -33.5t15.5 -25.5t23.5 -21t25.5 -16t32.5 -13t32.5 -10.5t37.5 -10.5t37 -9.5q92 -25 147.5 -56t98.5 -96q61 -89 61 -217q0 -139 -77.5 -238.5t-212.5 -134.5v-205h-174v205q-144 34 -222 129 t-86 242z" />
<glyph unicode="%" horiz-adv-x="1796" d="M70 1047q0 145 105 245.5t251 100.5q148 0 253 -100t105 -246q0 -147 -105.5 -250t-252.5 -103t-251.5 103t-104.5 250zM221 1044q0 -85 59.5 -146.5t145.5 -61.5t146.5 61t60.5 147t-60.5 146.5t-146.5 60.5t-145.5 -61t-59.5 -146zM555 0l571 1366h115l-567 -1366h-119 zM1012 326q0 145 105 245.5t251 100.5q147 0 252.5 -100t105.5 -246q0 -147 -105.5 -250t-252.5 -103t-251.5 103t-104.5 250zM1163 324q0 -87 59.5 -148t145.5 -61q87 0 147 61t60 148q0 86 -60.5 146t-146.5 60q-85 0 -145 -60.5t-60 -145.5z" />
<glyph unicode="&#x26;" horiz-adv-x="1284" d="M70 381q0 130 71 237t191 152q-72 75 -101.5 130t-29.5 142q0 148 99.5 249.5t246.5 101.5q145 0 242.5 -102.5t97.5 -248.5q0 -215 -230 -327l181 -178l151 303h221l-229 -451l274 -283l-133 -133l-237 240q-79 -117 -174 -178.5t-224 -61.5q-174 0 -295.5 117 t-121.5 291zM268 381q0 -91 63.5 -152t155.5 -61q167 0 265 182l-289 283q-91 -49 -143 -107t-52 -145zM399 1042q0 -21 5.5 -41t12 -34t21.5 -32.5t23.5 -27t29 -28.5t27.5 -27q3 2 27 16t29 17t25 16t26 19t20.5 19t19.5 23.5t12.5 25t10 30t2.5 33.5q0 61 -42 103 t-103 42q-65 0 -105.5 -44.5t-40.5 -109.5z" />
<glyph unicode="'" horiz-adv-x="405" d="M100 1366h205l-35 -549h-135z" />
<glyph unicode="(" horiz-adv-x="667" d="M70 518q0 270 150.5 512.5t393.5 362.5v-224q-97 -82 -158 -148.5t-106 -154.5q-82 -165 -82 -346q0 -143 48.5 -276.5t140.5 -237.5q12 -14 27 -28.5t26 -24.5t30 -26t27 -22.5t31.5 -25t28.5 -22.5v-226q-120 58 -231.5 161t-182.5 220q-67 108 -105 243t-38 263z" />
<glyph unicode=")" horiz-adv-x="667" d="M41 1167v226q121 -57 231.5 -160t182.5 -221q67 -109 105 -243t38 -263q0 -271 -151 -513t-396 -362v224q97 81 159 147.5t107 155.5q82 163 82 344q0 143 -48.5 276.5t-141.5 239.5q-12 14 -26.5 28.5t-24.5 24t-30.5 26.5t-26.5 22t-31.5 25t-28.5 23z" />
<glyph unicode="*" d="M160 1063l41 123l250 -86l-5 266h132l-5 -266l250 86l41 -123l-254 -78l160 -213l-104 -76l-154 217l-154 -219l-104 78l160 213z" />
<glyph unicode="+" d="M68 600v172h352v338h184v-338h352v-172h-352v-338h-184v338h-352z" />
<glyph unicode="," horiz-adv-x="436" d="M123 0v225h190v-205q0 -107 -44.5 -171t-145.5 -85v115q42 17 54.5 44t12.5 77h-67z" />
<glyph unicode="-" horiz-adv-x="514" d="M0 430v191h514v-191h-514z" />
<glyph unicode="." horiz-adv-x="436" d="M123 0v225h190v-225h-190z" />
<glyph unicode="/" horiz-adv-x="823" d="M-20 -342l581 1708h168l-584 -1708h-165z" />
<glyph unicode="0" d="M70 453v477q0 199 124 331t322 132q190 0 314 -130t124 -321v-504q0 -124 -34.5 -209t-124.5 -155q-129 -101 -285 -101q-119 0 -221 59.5t-162 162.5q-37 61 -47 115.5t-10 142.5zM262 438q0 -129 64.5 -210t189.5 -81q121 0 183.5 82.5t62.5 208.5v504q0 123 -64 200 t-184 77q-119 0 -185.5 -78t-66.5 -199v-504z" />
<glyph unicode="1" d="M258 1190v176h393v-1366h-190v1190h-203z" />
<glyph unicode="2" d="M74 899v14q0 97 29 184t82 153t135 104.5t182 38.5q180 0 306 -131t126 -312q0 -111 -49 -199t-142 -186l-378 -391h571v-174h-856v160l538 547q59 61 91 119.5t32 129.5q0 104 -65.5 183.5t-167.5 79.5q-114 0 -179 -84t-65 -201q0 -23 2 -35h-192z" />
<glyph unicode="3" d="M47 401h191q5 -115 73.5 -184.5t182.5 -69.5q103 0 174 75t71 179q0 105 -75 174.5t-181 69.5h-69v193h65q91 0 146 50.5t55 141.5q0 77 -53.5 133t-130.5 56q-83 0 -129 -54.5t-56 -140.5h-190q9 163 114 266t267 103q161 0 264.5 -112t103.5 -275q0 -86 -28 -140 t-97 -118q89 -57 137 -146.5t48 -195.5q0 -120 -61 -220t-163.5 -156.5t-222.5 -56.5q-181 0 -308.5 124t-127.5 304z" />
<glyph unicode="4" d="M23 215v184l622 967h193v-977h143v-174h-143v-215h-193v215h-622zM242 389h403v655z" />
<glyph unicode="5" d="M41 412h190q22 -115 93 -190t182 -75q116 0 195 92t79 210q0 131 -77 225t-205 94q-75 0 -129.5 -36t-100.5 -105l-166 37l115 702h623v-176h-465l-51 -301q80 53 190 53q132 0 237.5 -65t162.5 -174t57 -240q0 -204 -132.5 -347t-334.5 -143q-192 0 -318 122.5 t-145 316.5z" />
<glyph unicode="6" d="M41 453q0 150 102 313l383 600h228l-289 -448q54 8 80 8q190 0 314 -135t124 -326q0 -205 -133 -348.5t-336 -143.5q-128 0 -237.5 65.5t-172.5 176t-63 238.5zM231 449q0 -121 81.5 -211.5t201.5 -90.5q119 0 199 88.5t80 208.5q0 78 -34 148t-98 115t-143 45 q-122 0 -204.5 -89.5t-82.5 -213.5z" />
<glyph unicode="7" d="M131 1190v176h793v-176l-502 -1190h-213l516 1190h-594z" />
<glyph unicode="8" d="M80 401q0 114 43.5 198.5t134.5 154.5q-59 57 -86 120t-27 144q0 154 108 264.5t263 110.5q152 0 259.5 -111.5t107.5 -263.5q0 -83 -29 -145.5t-92 -118.5q89 -60 135.5 -149t46.5 -197q0 -179 -126.5 -307t-305.5 -128q-180 0 -306 124t-126 304zM272 391 q0 -99 69.5 -171.5t168.5 -72.5q101 0 171.5 74.5t70.5 175.5q0 99 -70.5 173.5t-169.5 74.5q-101 0 -170.5 -76t-69.5 -178zM336 1030q0 -77 50 -132.5t126 -55.5q80 0 129 55t49 135q0 76 -50.5 131.5t-125.5 55.5q-76 0 -127 -56t-51 -133z" />
<glyph unicode="9" d="M41 901q0 205 133 348.5t336 143.5q129 0 238 -65t172 -175t63 -238q0 -153 -104 -315l-381 -600h-228l291 449q-61 -9 -80 -9q-125 0 -226.5 63t-157.5 168.5t-56 229.5zM231 922q0 -121 79 -213.5t198 -92.5q125 0 205 89t80 215q0 121 -82 210t-201 89t-199 -88.5 t-80 -208.5z" />
<glyph unicode=":" horiz-adv-x="436" d="M123 0v225h190v-225h-190zM123 799v225h190v-225h-190z" />
<glyph unicode=";" horiz-adv-x="436" d="M123 0v225h190v-205q0 -107 -44.5 -171t-145.5 -85v115q42 17 54.5 44t12.5 77h-67zM123 799v225h190v-225h-190z" />
<glyph unicode="&#x3c;" d="M68 600v158l888 426v-183l-692 -323l690 -324l2 -182z" />
<glyph unicode="=" d="M68 455v161h888v-161h-888zM68 780v162h888v-162h-888z" />
<glyph unicode="&#x3e;" d="M68 172v184l692 322l-690 323l-2 183l888 -426v-158z" />
<glyph unicode="?" horiz-adv-x="921" d="M27 977q9 181 123 298.5t292 117.5q168 0 289 -123t121 -291q0 -179 -123 -287q-7 -6 -21.5 -18.5t-21.5 -18.5q-80 -69 -112.5 -132.5t-47.5 -172.5h-190q3 130 54.5 230t154.5 198q29 28 35.5 34.5t28.5 31.5t28.5 39t14 38.5t7.5 49.5q0 94 -62.5 160.5t-156.5 66.5 q-98 0 -152 -60t-67 -161h-194zM336 0v225h190v-225h-190z" />
<glyph unicode="@" horiz-adv-x="1501" d="M68 676q0 147 56 279t151 226t227 149.5t278 55.5q131 0 249.5 -43.5t206.5 -121t139.5 -191.5t51.5 -248q0 -99 -32 -200q-39 -112 -119.5 -196.5t-183.5 -84.5q-59 0 -102 35.5t-50 93.5q-43 -65 -110 -102t-144 -37q-131 0 -210 95.5t-79 229.5q0 102 43.5 196 t127.5 156t188 62q156 0 219 -137l20 113h131l-82 -418q-12 -58 -12 -92t17.5 -60t50.5 -26q49 0 92.5 45t66.5 96.5t35 101.5q17 70 17 127q0 146 -71 258.5t-190 171t-264 58.5q-164 0 -300 -78.5t-213.5 -214.5t-77.5 -301q0 -179 95.5 -330t258.5 -211q106 -41 244 -41 q221 0 415 86l33 -119q-201 -84 -446 -84q-206 0 -371 86.5t-260.5 247t-95.5 367.5zM545 623q0 -84 45 -142.5t127 -58.5q68 0 119 47.5t73.5 112t22.5 131.5q0 78 -42 130t-118 52q-99 0 -163 -85t-64 -187z" />
<glyph unicode="A" horiz-adv-x="1216" d="M0 0l518 1366h180l519 -1366h-211l-152 403h-492l-151 -403h-211zM434 586h350l-174 520z" />
<glyph unicode="B" horiz-adv-x="1067" d="M137 0v1366h355q99 0 173.5 -21.5t137.5 -80.5q115 -109 115 -277q0 -81 -30 -141.5t-93 -116.5q101 -60 151.5 -140t50.5 -194q0 -87 -35 -165.5t-100 -133.5q-113 -96 -317 -96h-408zM336 182h217q104 0 175 57t71 158q0 112 -77 164.5t-194 52.5h-192v-432zM336 797 h162q98 0 159.5 47.5t61.5 142.5q0 103 -62.5 149t-169.5 46h-151v-385z" />
<glyph unicode="C" horiz-adv-x="1447" d="M68 686q0 144 55 275t149 225.5t224 150.5t274 56q204 0 365.5 -97.5t263.5 -277.5h-240q-162 192 -385 192q-141 0 -258 -71.5t-182.5 -192t-65.5 -260.5q0 -102 39 -198.5t105.5 -169.5t160.5 -117.5t197 -44.5q219 0 375 180h244q-97 -172 -260.5 -267.5t-360.5 -95.5 q-191 0 -352.5 97.5t-254.5 261.5t-93 354z" />
<glyph unicode="D" horiz-adv-x="1345" d="M137 0v1366h484q282 0 458 -182q96 -98 147.5 -232t51.5 -276q0 -131 -44 -258.5t-128 -218.5q-100 -110 -237 -154.5t-308 -44.5h-424zM336 182h162q274 0 415 115q82 67 124 167t42 212q0 104 -37 200t-108 168q-74 76 -157.5 107t-194.5 31h-246v-1000z" />
<glyph unicode="E" horiz-adv-x="960" d="M137 0v1366h737v-184h-538v-402h538v-182h-538v-416h538v-182h-737z" />
<glyph unicode="F" horiz-adv-x="880" d="M137 0v1366h688v-184h-489v-410h489v-182h-489v-590h-199z" />
<glyph unicode="G" horiz-adv-x="1536" d="M68 680q0 145 53.5 276t145.5 227t222 153t275 57q192 0 355.5 -99.5t256.5 -269.5h-231q-86 93 -172.5 139.5t-200.5 46.5q-141 0 -257.5 -74t-181.5 -195t-65 -261q0 -103 39.5 -199.5t107 -167.5t161.5 -114t198 -43q178 0 324 123q57 48 87 95t60 124h-637v182h862 q-3 -197 -94.5 -358.5t-252 -255t-357.5 -93.5q-144 0 -273.5 56t-222.5 151t-147.5 225.5t-54.5 274.5z" />
<glyph unicode="H" horiz-adv-x="1234" d="M137 0v1366h199v-590h563v590h199v-1366h-199v594h-563v-594h-199z" />
<glyph unicode="I" horiz-adv-x="473" d="M137 0v1366h199v-1366h-199z" />
<glyph unicode="J" horiz-adv-x="876" d="M0 272h205q45 -116 164 -116q87 0 136.5 62.5t49.5 150.5v997h199v-1016q0 -163 -107 -270t-270 -107q-138 0 -245.5 82.5t-131.5 216.5z" />
<glyph unicode="K" horiz-adv-x="1103" d="M137 0v1366h199v-678l522 678h246l-535 -678l535 -688h-246l-522 688v-688h-199z" />
<glyph unicode="L" horiz-adv-x="843" d="M137 0v1366h199v-1184h473v-182h-672z" />
<glyph unicode="M" horiz-adv-x="1722" d="M137 0v1366h314l409 -1047l412 1047h313v-1366h-199v1153l-464 -1153h-121l-465 1153v-1153h-199z" />
<glyph unicode="N" horiz-adv-x="1357" d="M137 0v1366h217l668 -1040v1040h201v-1366h-207l-680 1055v-1055h-199z" />
<glyph unicode="O" horiz-adv-x="1556" d="M68 682q0 146 56 277.5t150.5 226.5t226 151t277.5 56t277.5 -56t226.5 -151t151 -226.5t56 -277.5q0 -145 -56.5 -276.5t-152 -226t-227 -150.5t-275.5 -56q-192 0 -355.5 94.5t-259 258t-95.5 356.5zM268 684q0 -144 65.5 -265t183 -192t261.5 -71q145 0 262.5 71 t182.5 192t65 265q0 143 -65.5 263.5t-183.5 191.5t-261 71t-261 -71.5t-183.5 -192t-65.5 -262.5z" />
<glyph unicode="P" horiz-adv-x="1058" d="M137 0v1366h475q176 0 289 -116t113 -292q0 -169 -107 -284q-74 -81 -160 -108t-215 -27h-196v-539h-199zM336 721h205q121 0 196.5 59.5t75.5 177.5q0 224 -274 224h-203v-461z" />
<glyph unicode="Q" horiz-adv-x="1542" d="M68 688q0 146 54.5 276.5t148 224.5t223.5 149t276 55q145 0 276 -56t225 -151.5t149 -227t55 -276.5q0 -133 -41.5 -245t-126.5 -232q53 -29 93 -38t105 -9v-185q-103 2 -180.5 25t-163.5 80q-190 -105 -393 -105q-144 0 -274.5 57.5t-223.5 154t-147.5 228t-54.5 275.5 zM266 674q0 -60 21 -131q107 43 258 43q283 0 600 -260q131 165 131 356q0 139 -65 260t-181 194.5t-256 73.5q-143 0 -260.5 -74.5t-182.5 -197t-65 -264.5zM369 369q150 -213 409 -213q68 0 110.5 12t96.5 49q-117 87 -226.5 135.5t-230.5 48.5q-57 0 -86.5 -5t-72.5 -27z " />
<glyph unicode="R" horiz-adv-x="1124" d="M137 0v1366h422q245 0 365 -115q62 -59 93.5 -145t31.5 -178q0 -108 -43 -199.5t-129 -146.5q-53 -34 -100 -49t-120 -25l383 -508h-249l-455 635v-635h-199zM336 662h137q73 0 135 12t119 40t90 82.5t33 131.5q0 123 -87.5 188.5t-215.5 65.5h-211v-520z" />
<glyph unicode="S" horiz-adv-x="942" d="M23 403h196q11 -113 67.5 -180t164.5 -67q94 0 157.5 66t63.5 161q0 24 -5 45.5t-11.5 38t-20.5 32.5t-24 26.5t-31 22.5t-33 18.5t-37.5 16t-37 13.5t-39.5 13t-38 12q-13 4 -44 14t-42.5 14t-35.5 14t-37.5 19t-31.5 24t-34 33q-92 105 -92 252q0 172 110.5 287 t282.5 115q163 0 266 -108t111 -273h-203q-5 83 -54 140.5t-130 57.5q-74 0 -129.5 -57t-55.5 -131q0 -29 7.5 -53.5t16.5 -41.5t30 -32.5t34 -24t44 -19.5t44.5 -15.5t49.5 -14.5q49 -15 61.5 -18.5t51.5 -17t55 -23.5t43.5 -27.5t47 -38.5t38.5 -49q71 -104 71 -237 q0 -184 -119.5 -310.5t-301.5 -126.5q-186 0 -304.5 121t-121.5 309z" />
<glyph unicode="T" horiz-adv-x="768" d="M23 1182v184h722v-184h-260v-1182h-200v1182h-262z" />
<glyph unicode="U" horiz-adv-x="1161" d="M123 418v948h199v-922q0 -128 67.5 -208t192.5 -80q116 0 190 77q43 45 55.5 90.5t12.5 120.5v922h198v-948q0 -95 -29.5 -168.5t-95.5 -138.5q-144 -138 -335 -138q-190 0 -322.5 128t-132.5 317z" />
<glyph unicode="V" horiz-adv-x="1200" d="M-10 1366h215l397 -1024l395 1024h211l-546 -1366h-121z" />
<glyph unicode="W" horiz-adv-x="1667" d="M27 1366h206l263 -1028l266 1028h145l262 -1022l267 1022h202l-381 -1366h-174l-249 954l-250 -954h-176z" />
<glyph unicode="X" horiz-adv-x="1155" d="M0 0l453 684l-453 682h238l337 -518l343 518h237l-457 -682l453 -684h-236l-340 520l-342 -520h-233z" />
<glyph unicode="Y" horiz-adv-x="1044" d="M0 1366h223l301 -641l299 641h221l-421 -874v-492h-199v492z" />
<glyph unicode="Z" horiz-adv-x="935" d="M47 0v182l594 1000h-561v184h782v-184l-588 -1000h613v-182h-840z" />
<glyph unicode="[" horiz-adv-x="667" d="M135 131v729q0 98 20.5 170t73.5 146q58 82 123.5 132t159.5 85v-224q-96 -60 -138 -136.5t-42 -190.5v-643q0 -122 40 -201.5t140 -140.5v-226q-162 65 -269.5 200t-107.5 300z" />
<glyph unicode="\" d="M53 1536h180l699 -1706h-180z" />
<glyph unicode="]" horiz-adv-x="667" d="M156 -145q96 60 137 136t41 191v643q0 123 -39 202t-139 140v226q161 -65 268.5 -200t107.5 -300v-729q0 -98 -20.5 -170t-73.5 -146q-57 -80 -124.5 -131.5t-157.5 -85.5v224z" />
<glyph unicode="^" d="M39 729l352 641h242l352 -641h-197l-276 496l-276 -496h-197z" />
<glyph unicode="_" d="M0 -125h1024v-164h-1024v164z" />
<glyph unicode="`" d="M221 1401l88 112l359 -268l-90 -112z" />
<glyph unicode="a" horiz-adv-x="1271" d="M66 508q0 152 68.5 276t191 195.5t274.5 71.5q110 0 214.5 -45t158.5 -129v147h176v-1024h-176v160q-25 -41 -48.5 -65t-62.5 -48q-119 -74 -274 -74q-148 0 -268 71.5t-187 194t-67 269.5zM256 510q0 -148 102 -255.5t248 -107.5q148 0 250 106.5t102 254.5 q0 152 -101 260.5t-251 108.5t-250 -108t-100 -259z" />
<glyph unicode="b" horiz-adv-x="1263" d="M123 0v1366h192v-485q128 174 355 174q145 0 267 -75.5t191.5 -200.5t69.5 -269q0 -147 -68.5 -270t-190 -195t-269.5 -72q-121 0 -211.5 40t-157.5 132v-145h-178zM309 510q0 -148 100.5 -255.5t247.5 -107.5q146 0 247.5 109t101.5 256q0 150 -99.5 259.5t-247.5 109.5 q-151 0 -250.5 -109.5t-99.5 -261.5z" />
<glyph unicode="c" horiz-adv-x="1142" d="M66 514q0 147 68 270t189 195t269 72q170 0 315.5 -103.5t184.5 -265.5h-213q-53 98 -119 146.5t-168 48.5q-150 0 -243 -105.5t-93 -257.5q0 -144 94.5 -255.5t235.5 -111.5q94 0 173.5 52.5t119.5 138.5h213q-57 -168 -192.5 -266.5t-311.5 -98.5q-148 0 -268.5 72.5 t-187 196.5t-66.5 272z" />
<glyph unicode="d" horiz-adv-x="1261" d="M66 518q0 143 65 264.5t182.5 195t261.5 73.5q103 0 208.5 -43.5t164.5 -118.5v477h191v-1366h-178v145q-134 -172 -367 -172q-151 0 -272.5 73t-188.5 197.5t-67 274.5zM256 514q0 -151 99.5 -259t248.5 -108q155 0 256 111t101 268q0 150 -104.5 250.5t-254.5 100.5 q-151 0 -248.5 -105.5t-97.5 -257.5z" />
<glyph unicode="e" horiz-adv-x="1175" d="M66 514q0 146 68.5 271t190 199.5t267.5 74.5q142 0 262 -73t188 -195.5t68 -264.5q0 -48 -6 -98h-846q30 -126 120.5 -203.5t217.5 -77.5q92 0 167 47t122 128h192q-58 -158 -190 -253.5t-299 -95.5q-108 0 -205.5 44t-166.5 118t-109.5 173t-40.5 206zM258 575h662 q-6 128 -103.5 218t-226.5 90q-71 0 -138 -29.5t-114 -81.5q-38 -42 -54 -85t-26 -112z" />
<glyph unicode="f" horiz-adv-x="579" d="M59 850v174h91v47q0 135 102 221q54 46 108 60t138 14h24v-168q-38 0 -67 -5t-56 -17.5t-42 -39t-15 -65.5v-47h180v-174h-180v-850h-192v850h-91z" />
<glyph unicode="g" horiz-adv-x="1284" d="M66 516q0 149 75 272.5t201 193t274 69.5q230 0 367 -152v125h178v-909q0 -157 -76.5 -276.5t-203.5 -180.5t-283 -61q-216 0 -375 149q-47 44 -72 79t-51 95h215q109 -147 293 -147q158 0 259.5 93.5t101.5 250.5v22q-146 -166 -359 -166q-145 0 -270.5 73.5t-199.5 199 t-74 270.5zM256 512q0 -149 103 -257t251 -108q154 0 257.5 112t103.5 267q0 148 -105.5 249.5t-253.5 101.5q-149 0 -252.5 -108t-103.5 -257z" />
<glyph unicode="h" horiz-adv-x="1140" d="M123 0v1366h190v-446q56 72 127 101.5t168 29.5q188 0 303 -111.5t115 -298.5v-641h-192v580q0 142 -56 219.5t-192 77.5q-130 0 -201.5 -82.5t-71.5 -214.5v-580h-190z" />
<glyph unicode="i" horiz-adv-x="436" d="M123 0v1024h190v-1024h-190zM123 1141v225h190v-225h-190z" />
<glyph unicode="j" horiz-adv-x="436" d="M-6 -201q60 3 87 27.5t36 85.5q6 39 6 117v995h190v-995q0 -132 -7 -173q-17 -101 -101 -171q-91 -79 -211 -88v202zM123 1141v225h190v-225h-190z" />
<glyph unicode="k" horiz-adv-x="970" d="M123 0v1366h190v-836l369 494h227l-370 -483l428 -541h-240l-414 530v-530h-190z" />
<glyph unicode="l" horiz-adv-x="436" d="M123 0v1366h190v-1366h-190z" />
<glyph unicode="m" horiz-adv-x="1783" d="M123 0v1024h178v-111q105 138 295 138q98 0 189 -44.5t130 -125.5q59 92 141 131t197 39q195 0 305.5 -114.5t110.5 -311.5v-625h-192v569q0 308 -244 308q-126 0 -191 -82q-25 -31 -37 -73t-14 -71t-2 -82v-569h-190v569q0 71 -9.5 122t-33.5 95.5t-72 67.5t-119 23 q-118 0 -190 -78q-40 -44 -51 -97.5t-11 -132.5v-569h-190z" />
<glyph unicode="n" horiz-adv-x="1144" d="M123 0v1024h178v-109q103 136 303 136q190 0 308 -116t118 -306v-629h-192v557q0 150 -43 215q-34 52 -90.5 78.5t-122.5 26.5q-90 0 -151.5 -45.5t-87.5 -115.5t-26 -159v-557h-194z" />
<glyph unicode="o" horiz-adv-x="1234" d="M66 518q0 110 44.5 209.5t119 170t175.5 112t211 41.5t211.5 -41t176.5 -111.5t120 -170t45 -210.5q0 -149 -75 -275t-202 -198t-276 -72q-148 0 -274.5 72.5t-201 198t-74.5 274.5zM256 514q0 -150 105 -258.5t255 -108.5q151 0 256 107.5t105 259.5q0 150 -105.5 256.5 t-255.5 106.5t-255 -106.5t-105 -256.5z" />
<glyph unicode="p" horiz-adv-x="1259" d="M123 -342v1366h178v-158q62 92 156 138.5t209 46.5q152 0 273.5 -75t188 -201t66.5 -277q0 -145 -67 -265.5t-185.5 -191t-263.5 -70.5q-110 0 -210.5 45t-154.5 131v-489h-190zM309 514q0 -151 99.5 -259t248.5 -108t248 106.5t99 256.5q0 148 -103 257.5t-250 109.5 q-145 0 -243.5 -108.5t-98.5 -254.5z" />
<glyph unicode="q" horiz-adv-x="1261" d="M66 514q0 148 69 271t191 194.5t270 71.5q103 0 205.5 -43t159.5 -121v137h178v-1366h-191v483q-139 -168 -346 -168q-150 0 -273 71.5t-193 195.5t-70 274zM256 514q0 -154 102 -260.5t254 -106.5q150 0 251.5 107t101.5 258q0 152 -102.5 258.5t-254.5 106.5t-252 -105 t-100 -258z" />
<glyph unicode="r" horiz-adv-x="589" d="M123 0v1024h178v-92q50 62 114 89t150 30v-197q-135 -10 -193.5 -83t-58.5 -212v-559h-190z" />
<glyph unicode="s" horiz-adv-x="817" d="M43 334h193q5 -84 46 -135.5t121 -51.5q63 0 108.5 36t45.5 98q0 49 -29 82.5t-77 53t-99.5 36t-107.5 45t-90 67.5q-66 75 -66 168q0 137 93.5 227.5t230.5 90.5q133 0 221.5 -83.5t91.5 -215.5h-190q-17 125 -127 125q-52 0 -89.5 -30.5t-37.5 -80.5q0 -17 4.5 -31.5 t10 -24.5t17.5 -20t20 -15.5t25.5 -12.5t25.5 -9.5t29 -9t27 -8.5q67 -21 119 -47.5t96.5 -65.5t68.5 -95t24 -126q0 -92 -51 -168.5t-132 -118t-172 -41.5q-160 0 -253.5 100t-96.5 261z" />
<glyph unicode="t" horiz-adv-x="542" d="M10 850v174h140v342h192v-342h168v-174h-168v-850h-192v850h-140z" />
<glyph unicode="u" horiz-adv-x="1144" d="M117 395v629h190v-557q0 -152 43 -215q34 -52 90.5 -78.5t122.5 -26.5q133 0 199.5 91t66.5 229v557h193v-1024h-178v109q-47 -69 -128 -102.5t-173 -33.5q-191 0 -308.5 116t-117.5 306z" />
<glyph unicode="v" horiz-adv-x="933" d="M-4 1024h205l268 -733l264 733h205l-401 -1024h-136z" />
<glyph unicode="w" horiz-adv-x="1452" d="M16 1024h205l230 -666l213 666h127l213 -666l227 666h205l-379 -1024h-107l-223 688l-223 -688h-107z" />
<glyph unicode="x" horiz-adv-x="966" d="M10 0l355 524l-345 500h234l225 -338l223 338h234l-334 -500l356 -524h-227l-252 362l-246 -362h-223z" />
<glyph unicode="y" horiz-adv-x="1013" d="M-4 1024h207l301 -795l307 795h207l-565 -1366h-199l149 362z" />
<glyph unicode="z" horiz-adv-x="808" d="M41 0v147l489 703h-442v174h655v-193l-462 -657h499v-174h-739z" />
<glyph unicode="{" d="M281 428v152q65 16 90.5 59t25.5 115v348q0 153 71 218.5t226 65.5q55 0 84 -2v-159q-62 0 -93.5 -4t-58.5 -20.5t-36.5 -50t-9.5 -91.5v-318q0 -94 -24.5 -147.5t-98.5 -95.5q72 -42 97.5 -98.5t25.5 -149.5v-307q0 -48 7.5 -78.5t20 -49.5t39 -28t54.5 -11.5t77 -2.5 v-160q-10 0 -30.5 -1t-32.5 -1q-171 0 -244.5 64.5t-73.5 234.5v332q0 78 -24 123.5t-92 62.5z" />
<glyph unicode="|" d="M420 -512v2048h184v-2048h-184z" />
<glyph unicode="}" d="M274 -227q62 0 93.5 4t59 20.5t37 50t9.5 91.5v317q0 95 24.5 147.5t100.5 96.5q-74 42 -99.5 97t-25.5 148v310q0 40 -4 68t-15.5 47t-24.5 30t-38.5 16.5t-50 7t-66.5 1.5v159q12 0 33 1t33 1q171 0 244 -65t73 -234v-331q0 -79 23 -124.5t92 -62.5v-151 q-65 -16 -90 -59t-25 -115v-348q0 -154 -72 -219.5t-227 -65.5q-55 0 -84 2v160z" />
<glyph unicode="~" horiz-adv-x="1366" d="M188 1247q29 62 50 97.5t55.5 75.5t79.5 58.5t104 18.5q51 0 111 -19t106 -42.5t101.5 -42.5t97.5 -19q63 0 99 30.5t77 96.5l109 -63q-26 -54 -52.5 -94t-63.5 -75.5t-85.5 -54t-106.5 -18.5q-47 0 -105.5 19t-104 42.5t-101 42.5t-96.5 19q-58 0 -95 -37t-73 -102z" />
<glyph unicode="&#xa1;" horiz-adv-x="491" d="M150 -342v1024h192v-1024h-192zM150 799v225h192v-225h-192z" />
<glyph unicode="&#xa2;" d="M70 705q0 169 101 286t267 148v176h174v-176q262 -65 342 -295h-219q-28 55 -84.5 82.5t-124.5 27.5q-113 0 -188.5 -74t-75.5 -186q0 -111 77 -183.5t189 -72.5q69 0 117.5 23.5t87.5 77.5h217q-83 -225 -338 -281v-180h-174v180q-170 37 -269 155.5t-99 291.5z" />
<glyph unicode="&#xa3;" d="M18 604v174h64q-19 44 -26 75t-7 77q0 126 59 232t163 168.5t229 62.5q169 0 291.5 -101.5t154.5 -267.5h-207q-39 92 -97 143.5t-148 51.5q-110 0 -182 -81.5t-72 -191.5q0 -104 69 -168h402v-174h-234q74 -117 74 -268q0 -72 -23 -162h60q104 0 165.5 60t61.5 163 q0 53 -24 105h204q11 -64 11 -103q0 -188 -113.5 -293.5t-302.5 -105.5h-512v174h235q26 44 35.5 77.5t9.5 84.5q0 176 -141 268h-199z" />
<glyph unicode="&#xa4;" horiz-adv-x="1366" d="M88 1235l102 102l201 -200q73 53 140.5 77.5t152.5 24.5q83 0 150 -24t139 -76l198 198l103 -102l-199 -199q52 -73 76.5 -139t24.5 -149q0 -82 -24 -148.5t-75 -138.5l201 -199l-100 -102l-201 198q-133 -100 -291 -100q-144 0 -295 98l-198 -196l-101 100l199 199 q-103 134 -103 291q0 143 101 284zM358 748q0 -135 95.5 -230.5t230.5 -95.5q134 0 229 96t95 230t-94.5 229.5t-229.5 95.5t-230.5 -95t-95.5 -230z" />
<glyph unicode="&#xa5;" d="M31 1366h215l268 -600l266 600h213l-198 -432h153v-158h-227l-100 -219h286v-158h-299v-399h-190v399h-301v158h289l-101 219h-229v158h155z" />
<glyph unicode="&#xa6;" d="M416 313h190v-655h-190v655zM416 674v692h190v-692h-190z" />
<glyph unicode="&#xa7;" d="M59 592q0 92 44.5 165.5t125.5 121.5q-71 101 -71 194q0 142 106 231t250 89q160 0 257 -94t116 -255h-199q-14 76 -58 118t-118 42q-66 0 -114 -39t-48 -104q0 -29 9.5 -52t30.5 -41.5t38 -29t49 -27.5q42 -22 127 -65t127 -64q55 -28 92 -53t72 -60t52.5 -81t17.5 -103 q0 -91 -40 -158t-118 -126q51 -62 75.5 -115.5t24.5 -122.5q0 -167 -113 -270t-282 -103q-177 0 -289 111t-121 289h197q8 -101 64 -158t155 -57q87 0 144 48.5t57 133.5q0 35 -13.5 64t-41.5 52.5t-50.5 37.5t-60.5 34l-281 148q-110 58 -161.5 123t-51.5 176zM240 608 q0 -44 31 -83.5t75 -61.5l328 -170q36 29 55.5 48t36 51.5t16.5 70.5q0 30 -9.5 53t-32 41.5t-39 28.5t-50.5 28l-305 156q-45 -30 -75.5 -72.5t-30.5 -89.5z" />
<glyph unicode="&#xa8;" d="M268 1174v225h187v-225h-187zM569 1174v225h187v-225h-187z" />
<glyph unicode="&#xa9;" horiz-adv-x="1583" d="M82 682q0 145 56.5 276.5t151.5 226.5t226.5 151.5t276.5 56.5q193 0 356 -95.5t257.5 -259t94.5 -356.5q0 -144 -56 -275.5t-151 -226.5t-226 -151t-275 -56t-275.5 56t-227 150.5t-152 226t-56.5 276.5zM197 682q0 -122 47 -233t127 -191.5t190.5 -128t231.5 -47.5 t231.5 48t189.5 128.5t125.5 191.5t46.5 232q0 163 -78.5 301.5t-215 219.5t-299.5 81q-122 0 -232.5 -48t-190 -129t-126.5 -192t-47 -233zM373 686q0 177 124.5 299.5t301.5 122.5q126 0 224 -61.5t163 -174.5h-158l-2 2q-57 57 -107 85t-118 28q-124 0 -210.5 -89.5 t-86.5 -213.5q0 -123 86.5 -214t208.5 -91q118 0 221 106h160q-1 -2 -3 -5t-3 -5q-139 -219 -377 -219q-176 0 -300 127t-124 303z" />
<glyph unicode="&#xaa;" horiz-adv-x="681" d="M35 1090q0 123 82.5 206.5t206.5 83.5q110 0 192 -82v68h105v-547h-105v72q-32 -43 -86 -64.5t-113 -21.5q-121 0 -201.5 82t-80.5 203zM47 608v68h574v-68h-574zM147 1092q0 -73 53 -129t126 -56q75 0 128.5 54t53.5 129q0 76 -52.5 132t-127.5 56q-76 0 -128.5 -55 t-52.5 -131z" />
<glyph unicode="&#xab;" horiz-adv-x="733" d="M82 428v190l256 252v-208l-137 -138l137 -137v-207zM385 428v190l252 252v-208l-137 -138l137 -137v-207z" />
<glyph unicode="&#xac;" d="M68 381v166h888v-547h-184v381h-704z" />
<glyph unicode="&#xad;" horiz-adv-x="514" d="M0 430v191h514v-191h-514z" />
<glyph unicode="&#xae;" horiz-adv-x="1050" d="M98 1141q0 178 125 302t303 124q177 0 301.5 -124.5t124.5 -301.5q0 -178 -124 -303t-302 -125t-303 124.5t-125 303.5zM166 1141q0 -149 105.5 -255t254.5 -106t254 106.5t105 254.5t-105.5 253t-253.5 105t-254 -104.5t-106 -253.5zM379 915v451h151q77 0 126 -36.5 t49 -110.5q0 -58 -33.5 -94.5t-91.5 -45.5l131 -164h-107l-141 185v-185h-84zM463 1141h39q119 0 119 78q0 35 -28.5 53t-66.5 18h-63v-149z" />
<glyph unicode="&#xaf;" d="M205 1225v133h614v-133h-614z" />
<glyph unicode="&#xb0;" d="M213 1073q0 122 88.5 207.5t210.5 85.5t210.5 -85.5t88.5 -207.5q0 -121 -88.5 -207t-210.5 -86t-210.5 85.5t-88.5 207.5zM330 1073q0 -74 54 -126t128 -52t128 52t54 126t-54 126t-128 52t-128 -52t-54 -126z" />
<glyph unicode="&#xb1;" d="M68 125v172h888v-172h-888zM68 715v170h352v340h184v-340h352v-170h-352v-340h-184v340h-352z" />
<glyph unicode="&#xb2;" horiz-adv-x="679" d="M57 1075v19q0 123 77 205.5t200 82.5q114 0 196 -78t82 -192q0 -69 -30.5 -122t-89.5 -109l-228 -217h350v-117h-553v104l342 324q74 70 74 143q0 58 -39 103t-96 45q-70 0 -109.5 -46t-39.5 -118v-27h-136z" />
<glyph unicode="&#xb3;" horiz-adv-x="679" d="M39 797h133q3 -69 45 -109.5t111 -40.5q59 0 103 41t44 100q0 61 -45.5 99.5t-107.5 38.5h-52v127q31 0 49 1t44 6.5t40 16.5t24.5 32t10.5 52q0 45 -31.5 75t-76.5 30q-101 0 -111 -115h-133q3 88 47 139q36 44 90.5 68t112.5 24q100 0 168.5 -67t68.5 -168 q0 -52 -17.5 -85t-57.5 -69q51 -31 80.5 -84.5t29.5 -113.5q0 -114 -85 -189.5t-201 -75.5q-118 0 -200.5 75.5t-82.5 191.5z" />
<glyph unicode="&#xb4;" d="M356 1245l359 268l88 -112l-357 -268z" />
<glyph unicode="&#xb5;" d="M82 -346v1327h184v-543q0 -49 3 -82t13 -72t32.5 -69t58.5 -53q59 -39 135 -39q131 0 203 115q29 48 38 96t9 119v528h182v-981h-182v158q-43 -91 -102 -137t-152 -46q-81 0 -137 35.5t-101 108.5v-465h-184z" />
<glyph unicode="&#xb6;" horiz-adv-x="1241" d="M47 1001q0 113 59 204.5t164 127.5q92 33 234 33h592v-145h-131v-1420h-158v1420h-201v-1420h-160v848q-10 -2 -28 -2q-161 0 -266 97t-105 257z" />
<glyph unicode="&#xb7;" horiz-adv-x="225" d="M0 563v266h225v-266h-225z" />
<glyph unicode="&#xb8;" d="M369 -301h98q19 -59 76 -59q33 0 55.5 21t22.5 54t-22.5 53.5t-55.5 20.5q-32 0 -64 -29l-61 62l71 178h95l-52 -125q12 2 37 2q65 0 108.5 -45.5t43.5 -110.5q0 -76 -52 -125t-128 -49q-70 0 -118 41.5t-54 110.5z" />
<glyph unicode="&#xb9;" horiz-adv-x="679" d="M174 1249v117h260v-819h-133v702h-127z" />
<glyph unicode="&#xba;" horiz-adv-x="681" d="M43 1096q0 119 89 201.5t210 82.5q120 0 208.5 -82t88.5 -202q0 -122 -87.5 -206.5t-209.5 -84.5q-123 0 -211 84.5t-88 206.5zM57 608v68h568v-68h-568zM156 1094q0 -77 55 -132t131 -55t130 55t54 132q0 75 -54.5 129.5t-129.5 54.5q-76 0 -131 -54t-55 -130z" />
<glyph unicode="&#xbb;" horiz-adv-x="735" d="M96 180v211l137 135l-137 138v206l252 -247l-2 -191zM403 180v211l138 135l-138 138v206l250 -247v-191z" />
<glyph unicode="&#xbc;" horiz-adv-x="1646" d="M174 1249v117h260v-819h-133v702h-127zM481 0l572 1366h114l-567 -1366h-119zM993 127v119l398 573h129v-575h92v-117h-92v-127h-134v127h-393zM1139 244h247v370z" />
<glyph unicode="&#xbd;" horiz-adv-x="1646" d="M174 1249v117h260v-819h-133v702h-127zM481 0l572 1366h114l-567 -1366h-119zM1026 530v19q0 124 77 205.5t200 81.5q114 0 196 -78t82 -191q0 -69 -30.5 -122t-90.5 -109l-227 -219h350v-117h-553v104l342 326q74 70 74 141q0 58 -39 103t-96 45q-69 0 -109.5 -46 t-40.5 -116v-27h-135z" />
<glyph unicode="&#xbe;" horiz-adv-x="1646" d="M39 797h133q3 -69 45 -109.5t111 -40.5q59 0 103 41t44 100q0 61 -45.5 99.5t-107.5 38.5h-52v127q31 0 49 1t44 6.5t40 16.5t24.5 32t10.5 52q0 45 -31.5 75t-76.5 30q-101 0 -111 -115h-133q3 88 47 139q36 44 90.5 68t112.5 24q100 0 168.5 -67t68.5 -168 q0 -52 -17.5 -85t-57.5 -69q51 -31 80.5 -84.5t29.5 -113.5q0 -114 -85 -189.5t-201 -75.5q-118 0 -200.5 75.5t-82.5 191.5zM481 0l570 1366h114l-567 -1366h-117zM991 127v119l400 573h129v-575h90v-117h-90v-127h-134v127h-395zM1137 244h249v370z" />
<glyph unicode="&#xbf;" horiz-adv-x="921" d="M70 45q0 179 123 287q7 6 21.5 18.5t21.5 18.5q79 68 111 132t48 173h191q-3 -130 -54.5 -230t-154.5 -198q-64 -61 -82 -88q-33 -48 -33 -105q0 -94 62.5 -160.5t156.5 -66.5q97 0 151.5 60t65.5 161h195q-8 -180 -121.5 -298t-292.5 -118q-168 0 -288.5 123t-120.5 291 zM395 799v225h191v-225h-191z" />
<glyph unicode="&#xc0;" horiz-adv-x="1216" d="M0 0l518 1366h180l519 -1366h-211l-152 403h-492l-151 -403h-211zM377 1694l78 143l411 -235l-73 -134zM434 586h350l-174 520z" />
<glyph unicode="&#xc1;" horiz-adv-x="1216" d="M0 0l518 1366h180l519 -1366h-211l-152 403h-492l-151 -403h-211zM350 1602l412 235l78 -143l-416 -226zM434 586h350l-174 520z" />
<glyph unicode="&#xc2;" horiz-adv-x="1216" d="M0 0l518 1366h180l519 -1366h-211l-152 403h-492l-151 -403h-211zM258 1505l256 248h184l260 -248h-221l-125 127l-135 -127h-219zM434 586h350l-174 520z" />
<glyph unicode="&#xc3;" horiz-adv-x="1216" d="M0 0l518 1366h180l519 -1366h-211l-152 403h-492l-151 -403h-211zM260 1653q116 73 195 73q45 0 133.5 -24.5t134.5 -24.5q65 0 154 52l79 -119q-105 -84 -206 -84q-45 0 -134.5 23.5t-134.5 23.5q-57 0 -133 -39zM434 586h350l-174 520z" />
<glyph unicode="&#xc4;" horiz-adv-x="1216" d="M0 0l518 1366h180l519 -1366h-211l-152 403h-492l-151 -403h-211zM356 1516v225h191v-225h-191zM434 586h350l-174 520zM670 1516v225h190v-225h-190z" />
<glyph unicode="&#xc5;" horiz-adv-x="1216" d="M0 0l518 1366h180l519 -1366h-211l-152 403h-492l-151 -403h-211zM403 1665q0 85 60 145t145 60t145 -60t60 -145t-60 -145t-145 -60t-145 60t-60 145zM434 586h350l-174 520zM512 1665q0 -40 27.5 -69t68.5 -29t69 29t28 69t-28 70t-69 30t-68.5 -29.5t-27.5 -70.5z" />
<glyph unicode="&#xc6;" horiz-adv-x="1642" d="M-41 0l918 1366h679v-184h-464v-402h464v-182h-464v-416h464v-182h-663v379h-451l-249 -379h-234zM573 561h320v508z" />
<glyph unicode="&#xc7;" horiz-adv-x="1447" d="M68 686q0 144 55 275t149 225.5t224 150.5t274 56q204 0 365.5 -97.5t263.5 -277.5h-240q-165 192 -385 192q-141 0 -258 -71.5t-182.5 -192t-65.5 -260.5q0 -102 39 -198.5t105.5 -169.5t160.5 -117.5t197 -44.5q219 0 375 180h244q-94 -166 -249.5 -260.5 t-346.5 -102.5l-45 -108q14 2 40 2q70 0 116 -48t46 -118q0 -82 -55.5 -135t-138.5 -53q-74 0 -126 45t-59 118h105q19 -63 82 -63q36 0 60 23t24 59q0 34 -24.5 56t-59.5 22q-37 0 -66 -29l-67 63l65 170q-131 16 -247 79t-198 157t-129.5 217.5t-47.5 255.5z" />
<glyph unicode="&#xc8;" horiz-adv-x="960" d="M137 0v1366h737v-184h-538v-402h538v-182h-538v-416h538v-182h-737zM274 1694l78 143l412 -235l-74 -134z" />
<glyph unicode="&#xc9;" horiz-adv-x="960" d="M137 0v1366h737v-184h-538v-402h538v-182h-538v-416h538v-182h-737zM246 1602l411 235l80 -143l-415 -226z" />
<glyph unicode="&#xca;" horiz-adv-x="960" d="M137 0v1366h737v-184h-538v-402h538v-182h-538v-416h538v-182h-737zM156 1505l256 248h184l260 -248h-221l-127 127l-133 -127h-219z" />
<glyph unicode="&#xcb;" horiz-adv-x="960" d="M137 0v1366h737v-184h-538v-402h538v-182h-538v-416h538v-182h-737zM252 1516v225h192v-225h-192zM567 1516v225h191v-225h-191z" />
<glyph unicode="&#xcc;" horiz-adv-x="473" d="M4 1694l80 143l412 -235l-76 -134zM137 0v1366h199v-1366h-199z" />
<glyph unicode="&#xcd;" horiz-adv-x="473" d="M-23 1602l412 235l78 -143l-416 -226zM137 0v1366h199v-1366h-199z" />
<glyph unicode="&#xce;" horiz-adv-x="473" d="M-47 1505l207 248h149l211 -248h-178l-102 127l-109 -127h-178zM137 0v1366h199v-1366h-199z" />
<glyph unicode="&#xcf;" horiz-adv-x="473" d="M12 1516v225h181v-225h-181zM137 0v1366h199v-1366h-199zM281 1516v225h180v-225h-180z" />
<glyph unicode="&#xd0;" horiz-adv-x="1345" d="M6 596v178h129v592h483q283 0 459 -182q97 -99 148 -233.5t51 -276.5q0 -132 -44 -258t-128 -219q-176 -197 -545 -197h-424v596h-129zM334 182h162q272 0 415 115q82 65 124 166.5t42 212.5q0 220 -145 371q-73 74 -157.5 105.5t-194.5 31.5h-246v-410h342v-178h-342 v-414z" />
<glyph unicode="&#xd1;" horiz-adv-x="1357" d="M137 0v1366h217l668 -1040v1040h201v-1366h-207l-680 1055v-1055h-199zM332 1653q116 73 194 73q45 0 134 -24.5t135 -24.5q17 0 34 4t26.5 7.5t30.5 13t29 12.5q18 7 31 15l82 -119q-105 -84 -207 -84q-45 0 -134 23.5t-134 23.5q-57 0 -133 -39z" />
<glyph unicode="&#xd2;" horiz-adv-x="1556" d="M68 682q0 146 56 277.5t150.5 226.5t226 151t277.5 56t277.5 -56t226.5 -151t151 -226.5t56 -277.5q0 -145 -56.5 -276.5t-152 -226t-227 -150.5t-275.5 -56q-192 0 -355.5 94.5t-259 258t-95.5 356.5zM268 684q0 -144 65.5 -265t183 -192t261.5 -71q145 0 262.5 71 t182.5 192t65 265q0 143 -65.5 263.5t-183.5 191.5t-261 71t-261 -71.5t-183.5 -192t-65.5 -262.5zM547 1694l78 143l411 -235l-73 -134z" />
<glyph unicode="&#xd3;" horiz-adv-x="1556" d="M68 682q0 146 56 277.5t150.5 226.5t226 151t277.5 56t277.5 -56t226.5 -151t151 -226.5t56 -277.5q0 -145 -56.5 -276.5t-152 -226t-227 -150.5t-275.5 -56q-192 0 -355.5 94.5t-259 258t-95.5 356.5zM268 684q0 -144 65.5 -265t183 -192t261.5 -71q145 0 262.5 71 t182.5 192t65 265q0 143 -65.5 263.5t-183.5 191.5t-261 71t-261 -71.5t-183.5 -192t-65.5 -262.5zM520 1602l412 235l78 -143l-416 -226z" />
<glyph unicode="&#xd4;" horiz-adv-x="1556" d="M68 682q0 146 56 277.5t150.5 226.5t226 151t277.5 56t277.5 -56t226.5 -151t151 -226.5t56 -277.5q0 -145 -56.5 -276.5t-152 -226t-227 -150.5t-275.5 -56q-192 0 -355.5 94.5t-259 258t-95.5 356.5zM268 684q0 -144 65.5 -265t183 -192t261.5 -71q145 0 262.5 71 t182.5 192t65 265q0 143 -65.5 263.5t-183.5 191.5t-261 71t-261 -71.5t-183.5 -192t-65.5 -262.5zM428 1505l256 248h184l260 -248h-221l-125 127l-135 -127h-219z" />
<glyph unicode="&#xd5;" horiz-adv-x="1556" d="M68 682q0 146 56 277.5t150.5 226.5t226 151t277.5 56t277.5 -56t226.5 -151t151 -226.5t56 -277.5q0 -145 -56.5 -276.5t-152 -226t-227 -150.5t-275.5 -56q-192 0 -355.5 94.5t-259 258t-95.5 356.5zM268 684q0 -144 65.5 -265t183 -192t261.5 -71q145 0 262.5 71 t182.5 192t65 265q0 143 -65.5 263.5t-183.5 191.5t-261 71t-261 -71.5t-183.5 -192t-65.5 -262.5zM430 1653q116 73 195 73q45 0 133.5 -24.5t134.5 -24.5q65 0 154 52l79 -119q-105 -84 -206 -84q-45 0 -134.5 23.5t-134.5 23.5q-57 0 -133 -39z" />
<glyph unicode="&#xd6;" horiz-adv-x="1556" d="M68 682q0 146 56 277.5t150.5 226.5t226 151t277.5 56t277.5 -56t226.5 -151t151 -226.5t56 -277.5q0 -145 -56.5 -276.5t-152 -226t-227 -150.5t-275.5 -56q-192 0 -355.5 94.5t-259 258t-95.5 356.5zM268 684q0 -144 65.5 -265t183 -192t261.5 -71q145 0 262.5 71 t182.5 192t65 265q0 143 -65.5 263.5t-183.5 191.5t-261 71t-261 -71.5t-183.5 -192t-65.5 -262.5zM526 1516v225h191v-225h-191zM840 1516v225h190v-225h-190z" />
<glyph unicode="&#xd7;" d="M133 410l275 274l-275 277l103 100l274 -275l274 275l103 -100l-277 -277l281 -278l-103 -101l-278 279l-277 -277z" />
<glyph unicode="&#xd8;" horiz-adv-x="1556" d="M68 682q0 145 55.5 276.5t150 227t226 151.5t276.5 56q186 0 346 -86l129 174l152 -107l-133 -178q105 -102 162 -235t57 -279q0 -145 -56.5 -276.5t-152 -226t-227 -150.5t-275.5 -56q-184 0 -348 90l-131 -176l-145 107l133 178q-219 216 -219 510zM268 684 q0 -202 131 -358l613 831q-66 32 -110.5 42.5t-119.5 10.5q-237 0 -383 -174q-62 -72 -96.5 -164.5t-34.5 -187.5zM541 211q107 -55 237 -55q145 0 262.5 71t182.5 192t65 265q0 191 -133 356z" />
<glyph unicode="&#xd9;" horiz-adv-x="1161" d="M123 418v948h199v-922q0 -128 67.5 -208t192.5 -80q116 0 190 77q43 45 55.5 90.5t12.5 120.5v922h198v-948q0 -95 -29.5 -168.5t-95.5 -138.5q-144 -138 -335 -138q-190 0 -322.5 128t-132.5 317zM350 1694l78 143l412 -235l-74 -134z" />
<glyph unicode="&#xda;" horiz-adv-x="1161" d="M123 418v948h199v-922q0 -128 67.5 -208t192.5 -80q116 0 190 77q43 45 55.5 90.5t12.5 120.5v922h198v-948q0 -95 -29.5 -168.5t-95.5 -138.5q-144 -138 -335 -138q-190 0 -322.5 128t-132.5 317zM322 1602l411 235l80 -143l-416 -226z" />
<glyph unicode="&#xdb;" horiz-adv-x="1161" d="M123 418v948h199v-922q0 -128 67.5 -208t192.5 -80q116 0 190 77q43 45 55.5 90.5t12.5 120.5v922h198v-948q0 -95 -29.5 -168.5t-95.5 -138.5q-144 -138 -335 -138q-190 0 -322.5 128t-132.5 317zM231 1505l256 248h185l260 -248h-221l-127 127l-133 -127h-220z" />
<glyph unicode="&#xdc;" horiz-adv-x="1161" d="M123 418v948h199v-922q0 -128 67.5 -208t192.5 -80q116 0 190 77q43 45 55.5 90.5t12.5 120.5v922h198v-948q0 -95 -29.5 -168.5t-95.5 -138.5q-144 -138 -335 -138q-190 0 -322.5 128t-132.5 317zM328 1516v225h192v-225h-192zM643 1516v225h191v-225h-191z" />
<glyph unicode="&#xdd;" horiz-adv-x="1044" d="M0 1366h223l301 -641l297 641h223l-421 -874v-492h-199v492zM389 1602l359 208l81 -133l-368 -202z" />
<glyph unicode="&#xde;" horiz-adv-x="1058" d="M137 0v1366h199v-192h276q173 0 287.5 -113.5t114.5 -286.5t-107 -291q-74 -81 -161.5 -109t-213.5 -28h-196v-346h-199zM336 528h205q65 0 111 12t85 48q78 75 78 178q0 99 -72 168q-38 37 -85 47t-119 10h-203v-463z" />
<glyph unicode="&#xdf;" horiz-adv-x="1169" d="M117 0v952q0 189 107.5 315t291.5 126q166 0 287 -118.5t121 -285.5q0 -76 -24 -126t-83 -97q77 -19 126.5 -52t92.5 -96q68 -101 68 -215q0 -184 -120 -307t-304 -123q-157 0 -277 105q-41 35 -58.5 63.5t-37.5 85.5v-227h-190zM309 358h154q14 -93 73.5 -152t151.5 -59 q96 0 160.5 70.5t64.5 167.5q0 79 -41 132.5t-102 75t-139 21.5h-133v170q107 3 171 57t64 158q0 92 -61 156t-152 64q-58 0 -100 -21.5t-65.5 -59.5t-34.5 -84t-11 -102v-594z" />
<glyph unicode="&#xe0;" horiz-adv-x="1271" d="M66 508q0 152 68.5 276t191 195.5t274.5 71.5q110 0 214.5 -45t158.5 -129v147h176v-1024h-176v160q-25 -41 -48.5 -65t-62.5 -48q-119 -74 -274 -74q-148 0 -268 71.5t-187 194t-67 269.5zM256 510q0 -148 102 -255.5t248 -107.5q148 0 250 106.5t102 254.5 q0 152 -101 260.5t-251 108.5t-250 -108t-100 -259zM385 1401l90 112l356 -268l-88 -112z" />
<glyph unicode="&#xe1;" horiz-adv-x="1271" d="M66 508q0 152 68.5 276t191 195.5t274.5 71.5q110 0 214.5 -45t158.5 -129v147h176v-1024h-176v160q-25 -41 -48.5 -65t-62.5 -48q-119 -74 -274 -74q-148 0 -268 71.5t-187 194t-67 269.5zM256 510q0 -148 102 -255.5t248 -107.5q148 0 250 106.5t102 254.5 q0 152 -101 260.5t-251 108.5t-250 -108t-100 -259zM385 1245l358 268l88 -112l-356 -268z" />
<glyph unicode="&#xe2;" horiz-adv-x="1271" d="M66 508q0 152 68.5 276t191 195.5t274.5 71.5q110 0 214.5 -45t158.5 -129v147h176v-1024h-176v160q-25 -41 -48.5 -65t-62.5 -48q-119 -74 -274 -74q-148 0 -268 71.5t-187 194t-67 269.5zM256 510q0 -148 102 -255.5t248 -107.5q148 0 250 106.5t102 254.5 q0 152 -101 260.5t-251 108.5t-250 -108t-100 -259zM289 1153l233 277h185l235 -277h-211l-113 156l-118 -156h-211z" />
<glyph unicode="&#xe3;" horiz-adv-x="1271" d="M66 508q0 152 68.5 276t191 195.5t274.5 71.5q110 0 214.5 -45t158.5 -129v147h176v-1024h-176v160q-25 -41 -48.5 -65t-62.5 -48q-119 -74 -274 -74q-148 0 -268 71.5t-187 194t-67 269.5zM256 510q0 -148 102 -255.5t248 -107.5q148 0 250 106.5t102 254.5 q0 152 -101 260.5t-251 108.5t-250 -108t-100 -259zM309 1317q107 72 183 72q43 0 126.5 -25t126.5 -25q17 0 37.5 6t35 12t38 17.5t33.5 16.5l76 -111q-34 -41 -87.5 -66.5t-107.5 -25.5q-43 0 -127 23.5t-127 23.5q-45 0 -125 -39z" />
<glyph unicode="&#xe4;" horiz-adv-x="1271" d="M66 508q0 152 68.5 276t191 195.5t274.5 71.5q110 0 214.5 -45t158.5 -129v147h176v-1024h-176v160q-25 -41 -48.5 -65t-62.5 -48q-119 -74 -274 -74q-148 0 -268 71.5t-187 194t-67 269.5zM256 510q0 -148 102 -255.5t248 -107.5q148 0 250 106.5t102 254.5 q0 152 -101 260.5t-251 108.5t-250 -108t-100 -259zM377 1174v225h186v-225h-186zM680 1174v225h184v-225h-184z" />
<glyph unicode="&#xe5;" horiz-adv-x="1271" d="M66 508q0 152 68.5 276t191 195.5t274.5 71.5q110 0 214.5 -45t158.5 -129v147h176v-1024h-176v160q-25 -41 -48.5 -65t-62.5 -48q-119 -74 -274 -74q-148 0 -268 71.5t-187 194t-67 269.5zM256 510q0 -148 102 -255.5t248 -107.5q148 0 250 106.5t102 254.5 q0 152 -101 260.5t-251 108.5t-250 -108t-100 -259zM444 1337q0 86 59.5 145.5t145.5 59.5q85 0 145 -60t60 -145t-60 -144.5t-145 -59.5t-145 59.5t-60 144.5zM549 1337q0 -42 29 -72t71 -30q41 0 70 30t29 72q0 41 -29.5 73t-69.5 32q-42 0 -71 -31.5t-29 -73.5z" />
<glyph unicode="&#xe6;" horiz-adv-x="2076" d="M66 520q0 149 72 271t195.5 191t272.5 69q226 0 365 -148v121h174v-121q65 72 154.5 110t189.5 38q108 0 205 -43t166.5 -115t110 -170.5t40.5 -206.5q0 -30 -4 -88h-854q22 -120 116.5 -200.5t217.5 -80.5q93 0 173.5 48t123.5 129h196q-57 -157 -193.5 -254t-303.5 -97 q-102 0 -178 35t-160 111v-119h-174v119q-85 -78 -166 -112t-193 -34q-152 0 -277.5 72t-197 197.5t-71.5 277.5zM256 516q0 -155 96.5 -262t249.5 -107q155 0 257 107t102 262q0 153 -102 257t-255 104t-250.5 -103.5t-97.5 -257.5zM1153 575h666q-10 136 -101.5 219 t-228.5 83q-140 0 -229.5 -81t-106.5 -221z" />
<glyph unicode="&#xe7;" horiz-adv-x="1142" d="M66 514q0 147 68 270t189 195t269 72q170 0 315.5 -103.5t184.5 -265.5h-213q-53 98 -119 146.5t-168 48.5q-150 0 -243 -105.5t-93 -257.5q0 -144 94.5 -255.5t235.5 -111.5q94 0 173.5 52.5t119.5 138.5h213q-52 -154 -173.5 -252.5t-281.5 -110.5l-43 -100q12 2 37 2 q65 0 108 -45.5t43 -110.5q0 -76 -52 -125t-128 -49q-70 0 -118 41.5t-54 110.5h98q19 -59 76 -59q33 0 55.5 21t22.5 54t-22.5 53.5t-55.5 20.5q-34 0 -63 -29l-62 62l64 153q-210 15 -343.5 170.5t-133.5 368.5z" />
<glyph unicode="&#xe8;" horiz-adv-x="1175" d="M66 514q0 146 68.5 271t190 199.5t267.5 74.5q142 0 262 -73t188 -195.5t68 -264.5q0 -48 -6 -98h-846q30 -126 120.5 -203.5t217.5 -77.5q92 0 167 47t122 128h192q-58 -158 -190 -253.5t-299 -95.5q-108 0 -205.5 44t-166.5 118t-109.5 173t-40.5 206zM258 575h662 q-6 128 -103.5 218t-226.5 90q-71 0 -138 -29.5t-114 -81.5q-38 -42 -54 -85t-26 -112zM365 1401l90 112l356 -268l-90 -112z" />
<glyph unicode="&#xe9;" horiz-adv-x="1175" d="M66 514q0 146 68.5 271t190 199.5t267.5 74.5q142 0 262 -73t188 -195.5t68 -264.5q0 -48 -6 -98h-846q30 -126 120.5 -203.5t217.5 -77.5q92 0 167 47t122 128h192q-58 -158 -190 -253.5t-299 -95.5q-108 0 -205.5 44t-166.5 118t-109.5 173t-40.5 206zM258 575h662 q-6 128 -103.5 218t-226.5 90q-71 0 -138 -29.5t-114 -81.5q-38 -42 -54 -85t-26 -112zM365 1245l356 268l90 -112l-356 -268z" />
<glyph unicode="&#xea;" horiz-adv-x="1175" d="M66 514q0 146 68.5 271t190 199.5t267.5 74.5q142 0 262 -73t188 -195.5t68 -264.5q0 -48 -6 -98h-846q30 -126 120.5 -203.5t217.5 -77.5q92 0 167 47t122 128h192q-58 -158 -190 -253.5t-299 -95.5q-108 0 -205.5 44t-166.5 118t-109.5 173t-40.5 206zM258 575h662 q-6 128 -103.5 218t-226.5 90q-71 0 -138 -29.5t-114 -81.5q-38 -42 -54 -85t-26 -112zM262 1153l232 277h184l235 -277h-208l-115 156l-119 -156h-209z" />
<glyph unicode="&#xeb;" horiz-adv-x="1175" d="M66 514q0 146 68.5 271t190 199.5t267.5 74.5q142 0 262 -73t188 -195.5t68 -264.5q0 -48 -6 -98h-846q30 -126 120.5 -203.5t217.5 -77.5q92 0 167 47t122 128h192q-58 -158 -190 -253.5t-299 -95.5q-108 0 -205.5 44t-166.5 118t-109.5 173t-40.5 206zM258 575h662 q-6 128 -103.5 218t-226.5 90q-71 0 -138 -29.5t-114 -81.5q-38 -42 -54 -85t-26 -112zM358 1174v225h185v-225h-185zM659 1174v225h187v-225h-187z" />
<glyph unicode="&#xec;" horiz-adv-x="436" d="M-4 1401l88 112l358 -268l-90 -112zM123 0v1024h190v-1024h-190z" />
<glyph unicode="&#xed;" horiz-adv-x="436" d="M-4 1245l356 268l90 -112l-358 -268zM123 0v1024h190v-1024h-190z" />
<glyph unicode="&#xee;" horiz-adv-x="436" d="M-18 1153l168 277h135l172 -277h-154l-82 156l-88 -156h-151zM123 0v1024h190v-1024h-190z" />
<glyph unicode="&#xef;" horiz-adv-x="436" d="M0 1174v225h174v-225h-174zM123 0v1024h190v-1024h-190zM262 1174v225h176v-225h-176z" />
<glyph unicode="&#xf0;" horiz-adv-x="1234" d="M66 518q0 106 42 202.5t113 166.5t168 111.5t203 41.5q142 0 248 -75q-48 120 -119 219l-137 -64l-60 92l135 62q-33 43 -77 94l116 68q21 -17 55.5 -54.5t41.5 -44.5l145 66l61 -90l-139 -66q120 -150 213.5 -358t93.5 -373q0 -105 -44.5 -209t-120.5 -178 q-156 -156 -394 -156q-109 0 -210 43.5t-174 117t-116.5 174.5t-43.5 210zM256 516q0 -152 105.5 -260.5t256.5 -108.5t256 108.5t105 260.5q0 150 -106.5 255.5t-256.5 105.5q-148 0 -254 -106.5t-106 -254.5z" />
<glyph unicode="&#xf1;" horiz-adv-x="1144" d="M123 0v1024h178v-109q103 136 303 136q190 0 308 -116t118 -306v-629h-192v557q0 150 -43 215q-34 52 -90.5 78.5t-122.5 26.5q-90 0 -151.5 -45.5t-87.5 -115.5t-26 -159v-557h-194zM246 1317q52 35 93.5 53.5t88.5 18.5q43 0 127 -25t127 -25q22 0 44 7t58 25t41 20 l76 -111q-34 -41 -87 -66.5t-107 -25.5q-43 0 -127 23.5t-127 23.5q-45 0 -125 -39z" />
<glyph unicode="&#xf2;" horiz-adv-x="1234" d="M66 518q0 110 44.5 209.5t119 170t175.5 112t211 41.5t211.5 -41t176.5 -111.5t120 -170t45 -210.5q0 -149 -75 -275t-202 -198t-276 -72q-148 0 -274.5 72.5t-201 198t-74.5 274.5zM256 514q0 -150 105 -258.5t255 -108.5q151 0 256 107.5t105 259.5q0 150 -105.5 256.5 t-255.5 106.5t-255 -106.5t-105 -256.5zM393 1401l90 112l357 -268l-88 -112z" />
<glyph unicode="&#xf3;" horiz-adv-x="1234" d="M66 518q0 110 44.5 209.5t119 170t175.5 112t211 41.5t211.5 -41t176.5 -111.5t120 -170t45 -210.5q0 -149 -75 -275t-202 -198t-276 -72q-148 0 -274.5 72.5t-201 198t-74.5 274.5zM256 514q0 -150 105 -258.5t255 -108.5q151 0 256 107.5t105 259.5q0 150 -105.5 256.5 t-255.5 106.5t-255 -106.5t-105 -256.5zM393 1245l359 268l88 -112l-357 -268z" />
<glyph unicode="&#xf4;" horiz-adv-x="1234" d="M66 518q0 110 44.5 209.5t119 170t175.5 112t211 41.5t211.5 -41t176.5 -111.5t120 -170t45 -210.5q0 -149 -75 -275t-202 -198t-276 -72q-148 0 -274.5 72.5t-201 198t-74.5 274.5zM256 514q0 -150 105 -258.5t255 -108.5q151 0 256 107.5t105 259.5q0 150 -105.5 256.5 t-255.5 106.5t-255 -106.5t-105 -256.5zM291 1153l233 277h185l235 -277h-211l-112 156l-121 -156h-209z" />
<glyph unicode="&#xf5;" horiz-adv-x="1234" d="M66 518q0 110 44.5 209.5t119 170t175.5 112t211 41.5t211.5 -41t176.5 -111.5t120 -170t45 -210.5q0 -149 -75 -275t-202 -198t-276 -72q-148 0 -274.5 72.5t-201 198t-74.5 274.5zM256 514q0 -150 105 -258.5t255 -108.5q151 0 256 107.5t105 259.5q0 150 -105.5 256.5 t-255.5 106.5t-255 -106.5t-105 -256.5zM289 1317q107 72 184 72q42 0 126.5 -25t127.5 -25q9 0 19 1.5t17.5 3t19 6t17 6.5t18.5 8.5t16 8.5t18 9.5t16 8.5l76 -111q-32 -42 -84.5 -67t-107.5 -25q-43 0 -127 23.5t-127 23.5q-55 0 -125 -39z" />
<glyph unicode="&#xf6;" horiz-adv-x="1234" d="M66 518q0 110 44.5 209.5t119 170t175.5 112t211 41.5t211.5 -41t176.5 -111.5t120 -170t45 -210.5q0 -149 -75 -275t-202 -198t-276 -72q-148 0 -274.5 72.5t-201 198t-74.5 274.5zM256 514q0 -150 105 -258.5t255 -108.5q151 0 256 107.5t105 259.5q0 150 -105.5 256.5 t-255.5 106.5t-255 -106.5t-105 -256.5zM373 1174v225h186v-225h-186zM676 1174v225h184v-225h-184z" />
<glyph unicode="&#xf7;" d="M68 600v172h888v-172h-888zM395 322q0 49 34.5 81.5t82.5 32.5t82.5 -33.5t34.5 -80.5t-35 -82t-82 -35t-82 35t-35 82zM395 1051q0 49 33.5 82.5t83.5 33.5q47 0 82 -34.5t35 -81.5t-35 -81t-82 -34t-82 34t-35 81z" />
<glyph unicode="&#xf8;" horiz-adv-x="1234" d="M66 518q0 110 44.5 209.5t119 170t175.5 112t211 41.5q120 0 220 -43l94 145l147 -102l-90 -138q86 -73 134 -177.5t48 -217.5q0 -149 -75 -275t-202 -198t-276 -72q-123 0 -219 43l-94 -145l-145 98l92 142q-87 79 -135.5 185t-48.5 222zM256 512q0 -132 96 -246 l385 590q-62 21 -121 21q-150 0 -255 -107t-105 -258zM498 168q59 -21 118 -21q150 0 255.5 107.5t105.5 257.5q0 140 -92 246z" />
<glyph unicode="&#xf9;" horiz-adv-x="1144" d="M117 395v629h190v-557q0 -152 43 -215q34 -52 90.5 -78.5t122.5 -26.5q133 0 199.5 91t66.5 229v557h193v-1024h-178v109q-47 -69 -128 -102.5t-173 -33.5q-191 0 -308.5 116t-117.5 306zM348 1401l90 112l357 -268l-88 -112z" />
<glyph unicode="&#xfa;" horiz-adv-x="1144" d="M117 395v629h190v-557q0 -152 43 -215q34 -52 90.5 -78.5t122.5 -26.5q133 0 199.5 91t66.5 229v557h193v-1024h-178v109q-47 -69 -128 -102.5t-173 -33.5q-191 0 -308.5 116t-117.5 306zM348 1245l359 268l88 -112l-357 -268z" />
<glyph unicode="&#xfb;" horiz-adv-x="1144" d="M117 395v629h190v-557q0 -152 43 -215q34 -52 90.5 -78.5t122.5 -26.5q133 0 199.5 91t66.5 229v557h193v-1024h-178v109q-47 -69 -128 -102.5t-173 -33.5q-191 0 -308.5 116t-117.5 306zM246 1153l233 277h185l235 -277h-211l-113 156l-120 -156h-209z" />
<glyph unicode="&#xfc;" horiz-adv-x="1144" d="M117 395v629h190v-557q0 -152 43 -215q34 -52 90.5 -78.5t122.5 -26.5q133 0 199.5 91t66.5 229v557h193v-1024h-178v109q-47 -69 -128 -102.5t-173 -33.5q-191 0 -308.5 116t-117.5 306zM326 1174v225h184v-225h-184zM627 1174v225h186v-225h-186z" />
<glyph unicode="&#xfd;" horiz-adv-x="1013" d="M-4 1024h207l301 -795l307 795h207l-565 -1366h-199l149 362zM369 1251l319 234l94 -123l-327 -221z" />
<glyph unicode="&#xfe;" horiz-adv-x="1259" d="M123 -342v1708h190v-500q58 90 149 137.5t200 47.5q116 0 217.5 -43.5t175.5 -128.5q64 -73 101.5 -174.5t37.5 -198.5q0 -148 -65 -270t-184 -193.5t-267 -71.5q-110 0 -210.5 45t-154.5 131v-489h-190zM309 510q0 -149 100 -257t248 -108t247.5 108t99.5 257 q0 151 -104 259t-255 108q-143 0 -239.5 -111t-96.5 -256z" />
<glyph unicode="&#xff;" horiz-adv-x="1013" d="M-4 1024h207l301 -795l307 795h207l-565 -1366h-199l149 362zM264 1174v225h185v-225h-185zM565 1174v225h187v-225h-187z" />
<glyph unicode="&#x152;" horiz-adv-x="2017" d="M68 676q0 140 60.5 286t160.5 242q95 90 227.5 139.5t267.5 49.5q146 0 282 -57.5t214 -168.5v199h651v-184h-454v-402h454v-182h-454v-416h454v-182h-651v195q-35 -48 -62 -73.5t-75 -53.5q-164 -95 -363 -95q-198 0 -361 90.5t-257 252t-94 360.5zM268 674 q0 -144 65 -262.5t181.5 -187t261.5 -68.5q146 0 261.5 68t179 186.5t63.5 263.5q0 149 -62 271t-179 193.5t-267 71.5q-146 0 -262.5 -74t-179 -196t-62.5 -266z" />
<glyph unicode="&#x153;" horiz-adv-x="2101" d="M66 514q0 114 42 214.5t114.5 171.5t173 112t214.5 41q303 0 463 -244q160 242 434 242q227 0 379 -156t152 -383q0 -26 -4 -84h-865q22 -124 117.5 -202.5t220.5 -78.5q100 0 180 46t125 133h195q-35 -89 -83 -152.5t-124 -112.5q-138 -88 -291 -88q-136 0 -249.5 65 t-186.5 181q-69 -118 -188.5 -182t-259.5 -64q-156 0 -283 68t-201.5 192.5t-74.5 280.5zM256 514q0 -156 99.5 -261.5t254.5 -105.5q158 0 261.5 103.5t103.5 261.5q0 157 -103 261t-260 104q-156 0 -256 -103.5t-100 -259.5zM1167 575h680q-8 76 -28.5 123.5t-71.5 92.5 q-99 86 -240 86q-174 0 -274 -123q-33 -40 -46 -79.5t-20 -99.5z" />
<glyph unicode="&#x178;" horiz-adv-x="1044" d="M0 1366h223l301 -641l299 641h221l-421 -874v-492h-199v492zM270 1516v225h191v-225h-191zM584 1516v225h190v-225h-190z" />
<glyph unicode="&#x2c6;" d="M186 1153l232 277h184l236 -277h-209l-113 156l-121 -156h-209z" />
<glyph unicode="&#x2dc;" d="M184 1317q107 72 183 72q43 0 127 -25t127 -25q15 0 28.5 2.5t32.5 10t25.5 10.5t31 15.5t25.5 13.5l76 -111q-33 -42 -86.5 -67t-108.5 -25q-42 0 -126 23.5t-126 23.5q-55 0 -125 -39z" />
<glyph unicode="&#x2000;" horiz-adv-x="935" />
<glyph unicode="&#x2001;" horiz-adv-x="1870" />
<glyph unicode="&#x2002;" horiz-adv-x="935" />
<glyph unicode="&#x2003;" horiz-adv-x="1870" />
<glyph unicode="&#x2004;" horiz-adv-x="623" />
<glyph unicode="&#x2005;" horiz-adv-x="467" />
<glyph unicode="&#x2006;" horiz-adv-x="311" />
<glyph unicode="&#x2007;" horiz-adv-x="311" />
<glyph unicode="&#x2008;" horiz-adv-x="233" />
<glyph unicode="&#x2009;" horiz-adv-x="374" />
<glyph unicode="&#x200a;" horiz-adv-x="103" />
<glyph unicode="&#x2010;" horiz-adv-x="514" d="M0 430v191h514v-191h-514z" />
<glyph unicode="&#x2011;" horiz-adv-x="514" d="M0 430v191h514v-191h-514z" />
<glyph unicode="&#x2012;" horiz-adv-x="514" d="M0 430v191h514v-191h-514z" />
<glyph unicode="&#x2013;" d="M68 600v172h888v-172h-888z" />
<glyph unicode="&#x2014;" horiz-adv-x="1546" d="M0 430v191h1546v-191h-1546z" />
<glyph unicode="&#x2018;" horiz-adv-x="436" d="M123 905v205q0 107 44.5 171t145.5 85v-115q-42 -17 -54.5 -44t-12.5 -77h67v-225h-190z" />
<glyph unicode="&#x2019;" horiz-adv-x="436" d="M123 905v115q42 16 54.5 43t12.5 78h-67v225h190v-205q0 -108 -44 -171.5t-146 -84.5z" />
<glyph unicode="&#x201a;" horiz-adv-x="436" d="M123 0v225h190v-205q0 -107 -44.5 -171t-145.5 -85v115q42 17 54.5 44t12.5 77h-67z" />
<glyph unicode="&#x201c;" horiz-adv-x="722" d="M123 905v205q0 107 44.5 171t145.5 85v-115q-42 -17 -54.5 -44t-12.5 -77h67v-225h-190zM410 905v205q0 107 44.5 171t145.5 85v-115q-42 -17 -55 -44t-13 -77h68v-225h-190z" />
<glyph unicode="&#x201d;" horiz-adv-x="722" d="M123 905v115q42 16 54.5 43t12.5 78h-67v225h190v-205q0 -108 -44 -171.5t-146 -84.5zM410 905v115q42 16 54.5 43t12.5 78h-67v225h190v-205q0 -108 -44 -171.5t-146 -84.5z" />
<glyph unicode="&#x201e;" horiz-adv-x="722" d="M123 0v225h190v-205q0 -107 -44.5 -171t-145.5 -85v115q42 17 54.5 44t12.5 77h-67zM410 0v225h190v-205q0 -107 -44.5 -171t-145.5 -85v115q42 17 54.5 44t12.5 77h-67z" />
<glyph unicode="&#x2022;" horiz-adv-x="1366" d="M401 696q0 118 82.5 202.5t200.5 84.5q116 0 198.5 -85.5t82.5 -201.5t-82.5 -201t-198.5 -85q-118 0 -200.5 84t-82.5 202z" />
<glyph unicode="&#x2026;" horiz-adv-x="1310" d="M123 0v225h190v-225h-190zM559 0v225h193v-225h-193zM997 0v225h191v-225h-191z" />
<glyph unicode="&#x202f;" horiz-adv-x="374" />
<glyph unicode="&#x2039;" horiz-adv-x="428" d="M82 428v190l252 252v-208l-137 -138l137 -137v-207z" />
<glyph unicode="&#x203a;" horiz-adv-x="430" d="M96 180v211l137 135l-137 138v206l252 -247l-2 -191z" />
<glyph unicode="&#x205f;" horiz-adv-x="467" />
<glyph unicode="&#x20ac;" horiz-adv-x="1710" d="M16 432l74 172h244q-4 54 -4 82q0 24 4 74h-318l74 174h283q76 204 255 331.5t404 127.5q204 0 365.5 -97.5t263.5 -277.5h-240q-162 192 -385 192q-145 0 -263 -75.5t-183 -200.5h622l-73 -174h-604q-5 -63 -5 -74q0 -35 7 -82h536l-74 -172h-405q67 -124 183 -200 t255 -76q219 0 375 180h244q-97 -172 -260.5 -267.5t-360.5 -95.5q-220 0 -398 128.5t-255 330.5h-361z" />
<glyph unicode="&#x2122;" horiz-adv-x="1595" d="M41 1249v117h455v-117h-158v-661h-137v661h-160zM575 588v778h203l246 -575l246 575h203v-778h-136v618l-272 -618h-84l-270 618v-618h-136z" />
<glyph unicode="&#x25fc;" d="M0 0v1024h1024v-1024h-1024z" />
<glyph unicode="&#xfb01;" horiz-adv-x="1017" d="M59 850v174h91v47q0 135 102 221q54 46 108 60t138 14h24v-168q-38 0 -67 -5t-56 -17.5t-42 -39t-15 -65.5v-47h180v-174h-180v-850h-192v850h-91zM702 0v1024h193v-1024h-193zM702 1141v225h193v-225h-193z" />
<glyph unicode="&#xfb02;" horiz-adv-x="1017" d="M59 850v174h91v47q0 135 102 221q54 46 108 60t138 14h24v-168q-38 0 -67 -5t-56 -17.5t-42 -39t-15 -65.5v-47h180v-174h-180v-850h-192v850h-91zM702 0v1366h193v-1366h-193z" />
</font>
</defs>
</svg>
